#N canvas 3442 134 1916 910 10;
#X floatatom 106 233 5 0 0 0 - - - 0;
#X obj 106 320 dac~;
#X text 141 234 MIDI pitch;
#X obj 377 384 tgl 15 0 empty empty empty 17 7 0 10 #fcfcfc #000000 #000000 0 1;
#N canvas 0 23 512 386 many_notes 0;
#X obj 37 37 inlet;
#X obj 37 266 outlet;
#X obj 37 96 f 0;
#X obj 36 138 % 8;
#X obj 179 150 table pitches;
#X obj 37 188 tabread pitches;
#X obj 37 58 metro 170;
#X floatatom 37 212 5 0 0 0 - - - 0;
#X obj 37 117 + 1;
#X floatatom 37 159 5 0 0 0 - - - 0;
#X obj 103 25 inlet;
#X obj 37 232 - 24;
#X obj 286 149 loadbang;
#X msg 180 174 \; pitches 0 48 67 62 58 51 70 72 65;
#X connect 0 0 6 0;
#X connect 2 0 8 0;
#X connect 3 0 2 1;
#X connect 3 0 9 0;
#X connect 5 0 7 0;
#X connect 6 0 2 0;
#X connect 7 0 11 0;
#X connect 8 0 3 0;
#X connect 9 0 5 0;
#X connect 10 0 6 1;
#X connect 11 0 1 0;
#X connect 12 0 13 0;
#X restore 377 406 pd many_notes;
#X obj 377 455 s notes;
#X floatatom 377 431 5 0 0 0 - - - 0;
#X obj 106 207 r notes;
#X obj 106 276 clone filterSynth.cl 32;
#X msg 106 255 next \$1;
#X obj 802 363 s filterScale;
#X floatatom 801 341 5 0 0 0 - - - 0;
#X floatatom 983 341 5 0 0 0 - - - 0;
#X obj 983 365 s filterOffset;
#X floatatom 1079 342 5 0 0 0 - - - 0;
#X obj 1080 365 s decayTime;
#X floatatom 897 339 5 0 0 0 - - - 0;
#X obj 897 364 s filterTime;
#X obj 544 355 s filterResonance;
#X text 446 91 This script is a demo on how to use the barycenter mapper to control the tempos and the resonance of a prefined melody. A major part of the diagram comes from the Very Useful Plugins blog page: https://reallyusefulplugins.tumblr.com/richsynthesis;
#N canvas 2 161 3436 1243 osc_generator 0;
#X obj 136 319 oscparse;
#X obj 136 294 netreceive -u -b 11111;
#X obj 136 345 list trim;
#X obj 136 369 outlet;
#X connect 0 0 2 0;
#X connect 1 0 0 0;
#X connect 2 0 3 0;
#X restore 496 222 pd osc_generator;
#X obj 452 258 route tempo;
#X obj 452 307 + 90;
#X floatatom 452 329 5 0 0 0 - - - 0;
#X floatatom 544 329 5 0 0 0 - - - 0;
#X obj 544 258 route resonance;
#X obj 106 298 *~ 0.75;
#X floatatom 165 298 5 0 0 0 - - - 0;
#X obj 544 282 * 29;
#X obj 544 307 + 1;
#X text 653 270 Maps resonance values from [0 \, 1] to [1 \, 30];
#X text 222 383 Play/Pause the melody ->;
#X text 801 304 Other filters coming from the original diagram whose values can be tweaked to change the output sound;
#X obj 452 282 * 270;
#X text 303 264 Maps tempo values from [0 \, 1] to [90 \, 360] Actual tempo is inversely proportional to the displayed value, f 23;
#X connect 0 0 9 0;
#X connect 3 0 4 0;
#X connect 4 0 6 0;
#X connect 6 0 5 0;
#X connect 7 0 0 0;
#X connect 8 0 26 0;
#X connect 9 0 8 0;
#X connect 11 0 10 0;
#X connect 12 0 13 0;
#X connect 14 0 15 0;
#X connect 16 0 17 0;
#X connect 20 0 21 0;
#X connect 20 0 25 0;
#X connect 21 0 33 0;
#X connect 22 0 23 0;
#X connect 23 0 4 1;
#X connect 24 0 18 0;
#X connect 25 0 28 0;
#X connect 26 0 1 0;
#X connect 26 0 1 1;
#X connect 27 0 26 1;
#X connect 28 0 29 0;
#X connect 29 0 24 0;
#X connect 33 0 22 0;
