#N canvas 2 53 956 991 12;
#X obj 63 732 dac~;
#X obj 188 98 netreceive -u -b 11111;
#X obj 188 155 oscparse;
#X obj 188 207 list trim;
#X obj 188 259 route pulse;
#X obj 226 376 bng 20 250 50 0 empty empty empty 0 -10 0 12 #fcfcfc #000000 #000000;
#X obj 258 445 bng 20 250 50 0 empty empty empty 0 -10 0 12 #fcfcfc #000000 #000000;
#X msg 258 497 0;
#X msg 206 445 0.5;
#X floatatom 188 509 5 0 0 0 - - - 0;
#X obj 63 681 *~;
#X obj 172 608 line~;
#X obj 277 417 del 80;
#X obj 64 614 osc~ 400;
#X obj 178 572 pack 0 1;
#X obj 182 313 sel 1;
#X connect 1 0 2 0;
#X connect 2 0 3 0;
#X connect 3 0 4 0;
#X connect 4 0 15 0;
#X connect 5 0 8 0;
#X connect 5 0 12 0;
#X connect 6 0 7 0;
#X connect 7 0 9 0;
#X connect 8 0 9 0;
#X connect 9 0 14 0;
#X connect 10 0 0 0;
#X connect 10 0 0 1;
#X connect 11 0 10 1;
#X connect 12 0 6 0;
#X connect 13 0 10 0;
#X connect 14 0 11 0;
#X connect 15 0 5 0;
