#N canvas 2 27 956 1017 12;
#X obj 303 119 netreceive -u -b 11111;
#X obj 303 175 oscparse;
#X obj 303 224 unpack s;
#X obj 303 358 spigot, f 7;
#X obj 348 405 delay 500;
#X obj 102 470 osc~ 1000;
#X obj 197 468 line~;
#X obj 196 522 *~;
#X obj 183 592 dac~;
#X msg 434 485 1;
#X msg 198 405 1 100 \, 0 0;
#X floatatom 503 443 5 0 0 0 - - - 0;
#X msg 351 321 0;
#X obj 303 288 route pulse;
#X floatatom 209 327 5 0 0 0 - - - 0;
#X connect 0 0 1 0;
#X connect 1 0 2 0;
#X connect 2 0 13 0;
#X connect 3 0 4 0;
#X connect 3 0 10 0;
#X connect 4 0 9 0;
#X connect 5 0 7 0;
#X connect 6 0 7 1;
#X connect 7 0 8 0;
#X connect 7 0 8 1;
#X connect 9 0 3 1;
#X connect 10 0 6 0;
#X connect 11 0 3 1;
#X connect 12 0 3 1;
#X connect 13 0 12 0;
#X connect 13 0 14 0;
#X connect 14 0 3 0;
